{  "asset": {    "version": "2.0",    "generator": "THREE.GLTFExporter"  },  "scenes": [    {      "name": "AuxScene",      "nodes": [        2      ]    }  ],  "scene": 0,  "nodes": [    {      "mesh": 0    },    {      "mesh": 1    },    {      "children": [        0,        1      ]    }  ],  "bufferViews": [    {      "buffer": 0,      "byteOffset": 0,      "byteLength": 833760,      "target": 34962,      "byteStride": 12    },    {      "buffer": 0,      "byteOffset": 833760,      "byteLength": 833760,      "target": 34962,      "byteStride": 12    },    {      "buffer": 0,      "byteOffset": 1667520,      "byteLength": 833760,      "target": 34962,      "byteStride": 12    },    {      "buffer": 0,      "byteOffset": 2501280,      "byteLength": 48384,      "target": 34962,      "byteStride": 12    },    {      "buffer": 0,      "byteOffset": 2549664,      "byteLength": 48384,      "target": 34962,      "byteStride": 12    }  ],  "buffers": [    {      "byteLength": 2598048,      "uri": "data:application/octet-stream;base64,"    }  ],  "accessors": [    {      "bufferView": 0,      "componentType": 5126,      "count": 69480,      "max": [        59.647056579589844,        59.647056579589844,        5.487612247467041      ],      "min": [        -59.647056579589844,        -59.647056579589844,        -5.487612247467041      ],      "type": "VEC3"    },    {      "bufferView": 1,      "componentType": 5126,      "count": 69480,      "max": [        0.9946517944335938,        0.9953975081443787,        1      ],      "min": [        -0.9941322803497314,        -0.9941909909248352,        0.0837390124797821      ],      "type": "VEC3"    },    {      "bufferView": 2,      "componentType": 5126,      "count": 69480,      "max": [        1,        0.8713670969009399,        0.637596845626831      ],      "min": [        0.04373503103852272,        0,        0      ],      "type": "VEC3"    },    {      "bufferView": 3,      "componentType": 5126,      "count": 4032,      "max": [        59.647056579589844,        59.647056579589844,        -5.487612247467041      ],      "min": [        -59.647056579589844,        -59.647056579589844,        -5.487612247467041      ],      "type": "VEC3"    },    {      "bufferView": 4,      "componentType": 5126,      "count": 4032,      "max": [        0,        0,        -1      ],      "min": [        0,        0,        -1      ],      "type": "VEC3"    }  ],  "materials": [    {      "pbrMetallicRoughness": {        "metallicFactor": 0.5,        "roughnessFactor": 0.5      },      "doubleSided": true    },    {      "pbrMetallicRoughness": {        "metallicFactor": 0,        "roughnessFactor": 0.9      },      "doubleSided": true,      "extensions": {        "KHR_materials_unlit": {}      }    }  ],  "meshes": [    {      "primitives": [        {          "mode": 4,          "attributes": {            "POSITION": 0,            "NORMAL": 1,            "COLOR_0": 2          },          "material": 0        }      ]    },    {      "primitives": [        {          "mode": 4,          "attributes": {            "POSITION": 3,            "NORMAL": 4          },          "material": 1        }      ]    }  ],  "extensionsUsed": [    "KHR_materials_unlit"  ]}